# xmcd
#
# Track frame offsets:
#	182
#	16887
#	32372
#	48307
#	63130
#	77417
#	91737
#	107720
#	122687
#	137665
#
# Disc length: 2002 seconds
#
# Revision: 0
# Processed by: cddbd v1.5.1PL0 Copyright (c) Steve Scherf et al.
# Submitted via: dBpowerAMP V4.0
#
DISCID=6a07d00a
DTITLE=Tche Barbaridade - Tche Barbaridade
DYEAR=1900
DGENRE=Country
TTITLE0=Partindo
TTITLE1=Balanço do Izá
TTITLE2=Ao Som de um Gaitaço
TTITLE3=Apaixonado
TTITLE4=Recomeçar
TTITLE5=Gaita do Belizário
TTITLE6=Maria Dançadeira
TTITLE7=La Barca
TTITLE8=A Saudade Mata a Gente
TTITLE9=Gaita, Mulher e Surungo
EXTD=My name is Marcia Salgado.\nThis album has some country brazilian music from south.
EXTT0=
EXTT1=
EXTT2=
EXTT3=
EXTT4=
EXTT5=
EXTT6=
EXTT7=
EXTT8=
EXTT9=
PLAYORDER=
